<svg width="154" height="154" viewBox="0 0 154 154" fill="none" xmlns="http://www.w3.org/2000/svg">
<path d="M88.148 29.6349C85.3936 31.9303 81.4915 34.2256 77.819 36.0619C74.1464 37.6686 65.6537 39.7344 65.6537 39.7344C65.6537 39.7344 75.5236 39.2754 80.3439 37.2096C83.7869 35.6028 89.5252 31.9303 91.591 29.8645C94.3454 26.8805 98.9361 24.3557 103.527 23.6671C112.708 22.2898 119.365 27.7987 119.135 30.7826C118.906 33.7666 122.808 36.0619 124.873 33.7665C126.939 31.4712 127.628 23.6671 120.742 21.1422C113.856 18.6173 100.543 21.8308 100.543 21.8308C100.543 21.8308 115.463 11.5018 127.628 17.9287C139.793 24.1261 142.777 29.4054 148.286 28.2577C153.795 27.3396 157.238 18.1582 144.843 13.7971C132.219 9.43596 115.922 9.43596 107.658 13.7971C102.838 16.322 98.2475 19.765 94.8045 22.9785C92.2796 25.0443 90.6729 27.3396 88.148 29.6349Z" fill="url(#paint0_diamond)"/>
<path d="M53.4885 31.9304C44.9957 35.3734 33.0599 30.5532 33.0599 30.5532C33.0599 30.5532 35.5848 32.8486 39.0278 34.6848C42.4708 36.5211 52.3408 38.8164 61.7517 38.3574C70.933 37.8983 85.3937 29.8646 93.8864 19.7651C102.609 9.66563 95.0341 3.69776 89.7548 5.53403C84.4755 7.3703 84.4755 13.3382 77.1304 24.8149C69.7854 36.2916 51.6522 34.9144 51.6522 34.9144C51.6522 34.9144 64.7356 31.0123 69.3263 25.2739C74.1465 19.5356 69.5558 13.1086 66.5719 12.1905C63.5879 11.2724 61.2926 15.1744 63.1289 17.6993C65.1947 20.4537 61.9812 28.717 53.4885 31.9304Z" fill="url(#paint1_diamond)"/>
<path d="M24.1079 30.5532C22.2716 30.5532 18.8286 27.3397 15.6151 26.6511C12.4017 26.192 7.58144 26.8806 4.36796 30.0941C1.15449 33.3076 -0.681791 38.5869 0.236345 42.948C1.15448 47.3092 8.49958 52.5884 12.1721 52.818C16.0742 53.0475 22.2716 49.375 22.2716 44.0957C22.2716 38.8164 19.0581 37.6687 16.7628 37.8983C13.3198 37.8983 11.4835 40.1936 11.4835 42.2594C11.4835 43.4071 12.6312 44.7843 13.7789 45.4729C14.9265 46.1615 16.3037 45.932 16.3037 47.0796C16.3037 48.9159 14.2379 50.0636 12.1721 50.0636C8.04051 50.0636 5.05657 47.3092 5.05657 42.948C5.05657 36.9801 9.87678 32.3895 15.8447 32.3895C21.8125 32.3895 27.7804 36.7506 28.469 41.5708C29.1576 46.1615 28.01 47.5387 25.2555 50.2931C22.5011 53.0475 20.8944 56.9496 22.9602 57.8677C28.2395 60.1631 31.912 47.9978 30.9939 42.4889C30.0758 36.9801 28.2395 33.0781 28.2395 32.1599C28.2395 31.2418 28.9281 30.7827 30.0758 30.7827C30.3053 30.7827 30.5348 30.7827 30.7644 30.7827C30.7644 30.5532 30.7644 30.3236 30.7644 30.0941C30.7644 28.9464 31.2234 28.2578 32.1416 28.2578C33.0597 28.2578 36.9618 29.8646 42.4706 31.0123C47.9794 31.9304 60.1447 28.4874 57.8494 22.9786C56.9312 20.9128 53.0292 22.5195 50.2747 25.2739C47.5203 28.0283 46.1431 29.176 41.5525 28.4874C36.7322 27.7988 32.3711 21.8309 32.3711 15.863C32.3711 9.89513 36.9618 5.07491 42.9297 5.07491C47.2908 5.07491 50.0452 8.05885 50.0452 12.1905C50.0452 14.0267 48.8975 16.0925 47.0613 16.3221C46.1431 16.3221 46.1431 14.7153 45.4545 13.7972C44.7659 12.6495 43.3887 11.5019 42.2411 11.5019C40.1753 11.5019 37.8799 13.3381 37.8799 16.7811C37.8799 19.0765 39.0276 22.29 44.0773 22.29C49.1271 22.29 53.0292 16.0925 52.7996 12.1905C52.5701 8.28838 47.2908 1.17284 42.9297 0.254701C38.5685 -0.663435 33.2892 0.94331 30.0758 4.38632C26.8623 7.59979 25.9441 12.42 26.6327 15.6335C27.0918 18.8469 30.5348 22.5195 30.5348 24.1262C30.5348 24.8148 30.0758 25.2739 29.6167 25.2739C27.7804 25.2739 22.9602 20.9128 21.583 16.0925C20.2058 11.2723 23.4193 6.91118 23.4193 5.07491C23.4193 2.77957 22.2716 0.254708 19.9763 0.94331C17.6809 1.63191 17.2219 3.6977 17.2219 5.30444C17.2219 6.45211 19.0581 11.2723 19.0581 12.1905C19.0581 14.0267 18.3695 14.9449 17.6809 14.9449C16.9923 14.9449 8.49958 6.91119 11.0245 3.23865C15.1561 -2.27017 3.67936 1.6319 3.22029 2.77957C2.30216 3.46817 -1.82946 14.7153 3.67935 10.5837C7.12236 8.05885 15.3856 16.5516 15.3856 17.2402C15.3856 17.9288 14.4675 18.6174 12.6312 18.6174C11.4835 18.6174 6.89283 16.7811 5.74516 16.7811C4.13843 16.7811 2.07262 17.2402 1.38401 19.5356C0.695413 21.8309 3.22029 22.9786 5.51563 22.9786C7.3519 22.9786 11.7131 19.7651 16.5333 21.1423C21.3535 22.5195 25.7146 27.3397 25.7146 29.176C25.2556 30.0941 24.5669 30.5532 24.1079 30.5532Z" fill="url(#paint2_diamond)"/>
<path d="M24.7964 77.6076C13.3198 84.9527 7.35187 84.9527 5.51559 90.232C3.67932 95.5113 9.6472 103.086 19.7467 94.3636C29.8462 85.6413 37.8799 71.4102 38.339 62.2288C38.798 53.0475 36.2731 43.1775 34.6664 39.505C32.8301 36.062 30.5348 33.5371 30.5348 33.5371C30.5348 33.5371 35.1255 45.2433 31.912 53.9656C28.469 62.4584 20.4353 65.4423 17.9104 63.8356C15.3856 62.2288 11.4835 64.5242 12.4016 67.2786C13.3197 70.2625 19.7467 74.6237 25.485 70.033C31.2234 65.2128 35.1255 52.3589 35.1255 52.3589C35.1255 52.3589 36.2731 70.2625 24.7964 77.6076Z" fill="url(#paint3_diamond)"/>
<path d="M29.6168 91.6092C31.6826 89.5434 35.3551 83.8051 36.9619 80.362C39.0277 75.5418 39.4868 65.6719 39.4868 65.6719C39.4868 65.6719 37.4209 74.1646 35.8142 77.8372C34.2075 81.5097 31.6826 85.4118 29.3873 88.1662C27.0919 90.9206 24.567 92.2978 22.5012 94.5931C19.2878 98.0362 15.8448 102.627 13.3199 107.447C9.18828 115.71 8.95874 132.007 13.3199 144.632C17.681 157.256 26.6328 153.813 27.7805 148.075C28.6987 142.566 23.6489 139.582 17.4515 127.417C11.2541 115.251 21.3536 100.331 21.3536 100.331C21.3536 100.331 18.1401 113.415 20.665 120.53C23.1898 127.417 31.2235 126.728 33.2893 124.662C35.5847 122.596 33.2893 118.694 30.3054 118.924C27.3215 119.153 21.8126 112.267 23.1898 103.315C23.8784 99.1838 26.6329 94.5932 29.6168 91.6092Z" fill="url(#paint4_diamond)"/>
<path d="M59.9154 60.1631C61.2926 58.7859 59.4564 54.6543 52.3408 47.5387C45.2253 40.4232 34.2076 34.4553 34.2076 34.4553C34.2076 34.4553 40.1755 45.473 47.2911 52.5885C54.4066 59.7041 58.5382 61.5403 59.9154 60.1631Z" fill="url(#paint5_diamond)"/>
<defs>
<radialGradient id="paint0_diamond" cx="0" cy="0" r="1" gradientUnits="userSpaceOnUse" gradientTransform="translate(109.466 25.1303) rotate(90) scale(14.6041 43.8123)">
<stop stop-color="#FFBA27"/>
<stop offset="1" stop-color="#AF7A08"/>
</radialGradient>
<radialGradient id="paint1_diamond" cx="0" cy="0" r="1" gradientUnits="userSpaceOnUse" gradientTransform="translate(65.4627 21.8102) rotate(90) scale(16.6065 32.4028)">
<stop stop-color="#FFBA27"/>
<stop offset="1" stop-color="#AF7A08"/>
</radialGradient>
<radialGradient id="paint2_diamond" cx="0" cy="0" r="1" gradientUnits="userSpaceOnUse" gradientTransform="translate(29.0671 29.0763) rotate(90) scale(29.0763 29.0671)">
<stop stop-color="#FFBA27"/>
<stop offset="1" stop-color="#AF7A08"/>
</radialGradient>
<radialGradient id="paint3_diamond" cx="0" cy="0" r="1" gradientUnits="userSpaceOnUse" gradientTransform="translate(21.7896 65.9399) rotate(90) scale(32.4028 16.6043)">
<stop stop-color="#FFBA27"/>
<stop offset="1" stop-color="#AF7A08"/>
</radialGradient>
<radialGradient id="paint4_diamond" cx="0" cy="0" r="1" gradientUnits="userSpaceOnUse" gradientTransform="translate(24.8106 109.455) rotate(90) scale(43.7836 14.6761)">
<stop stop-color="#FFBA27"/>
<stop offset="1" stop-color="#AF7A08"/>
</radialGradient>
<radialGradient id="paint5_diamond" cx="0" cy="0" r="1" gradientUnits="userSpaceOnUse" gradientTransform="translate(47.2736 47.5213) rotate(90) scale(13.066)">
<stop stop-color="#FFBA27"/>
<stop offset="1" stop-color="#AF7A08"/>
</radialGradient>
</defs>
</svg>
